<svg width="79" height="79" viewBox="0 0 79 79" fill="none" xmlns="http://www.w3.org/2000/svg">
<path d="M47.9729 58.9378C47.4214 59.4744 47.1681 60.2793 47.2872 61.0544L49.1952 72.1144C49.5231 74.0521 47.4959 75.5278 45.752 74.6186L44.3359 73.8733C44.6787 73.3814 44.8428 72.7852 44.7235 72.1144L42.8155 61.0544C42.6964 60.2793 42.9497 59.4744 43.5012 58.9378L51.5503 51.0975C52.9515 49.7261 52.1913 47.3263 50.2386 47.0431L39.119 45.4332C38.3438 45.329 37.6732 44.8371 37.3303 44.1365L32.471 34.2838L32.5754 34.0603C33.4399 32.2865 35.959 32.2865 36.8235 34.0603L41.802 44.1365C42.1449 44.8371 42.8155 45.329 43.5907 45.4332L54.7103 47.0431C56.663 47.3263 57.4232 49.7261 56.022 51.0975L47.9729 58.9378Z" fill="black"/>
<path d="M46.856 75.6363C46.3625 75.6363 45.8676 75.5183 45.4076 75.2796L43.2431 74.1399L43.7249 73.4484C43.9782 73.0831 44.067 72.6784 43.9898 72.2446L42.0801 61.1804C41.9199 60.1411 42.2576 59.1076 42.9811 58.403L51.0307 50.563C51.4849 50.119 51.6392 49.4902 51.4398 48.8818C51.2447 48.2835 50.7556 47.8715 50.1326 47.7813L39.013 46.1714C37.9999 46.0345 37.1178 45.3955 36.6607 44.4654L31.6446 34.2934L31.8994 33.7461C32.4307 32.6544 33.502 31.9848 34.6985 31.9848C35.8965 31.9848 36.9679 32.6544 37.4934 33.7345L42.4702 43.806C42.7089 44.2922 43.1645 44.624 43.6914 44.6954L54.8168 46.3053C55.9973 46.4771 56.9595 47.2864 57.3292 48.4203C57.7019 49.5615 57.4006 50.7915 56.5432 51.63L48.4921 59.4715C48.1195 59.8339 47.9404 60.3973 48.0234 60.9402L49.9303 71.987C50.1297 73.1675 49.6537 74.3349 48.6886 75.0365C48.1427 75.4339 47.5008 75.6363 46.856 75.6363ZM45.3334 73.5562L46.0991 73.9594C46.6595 74.2519 47.3014 74.2054 47.8123 73.8313C48.3232 73.4586 48.5663 72.8633 48.4601 72.2374L46.5518 61.1804C46.3916 60.1411 46.7293 59.1076 47.4528 58.403L55.5024 50.563C55.9566 50.119 56.1109 49.4902 55.9115 48.8818C55.7164 48.2835 55.2273 47.8715 54.6043 47.7813L52.3422 47.4538C52.565 47.7362 52.7411 48.0622 52.8575 48.4203C53.2302 49.5615 52.9289 50.7915 52.0715 51.63L44.0204 59.4715C43.6478 59.8339 43.4687 60.3973 43.5517 60.9402L45.4586 71.987C45.5546 72.527 45.511 73.0583 45.3334 73.5562ZM33.3011 34.2803L37.9985 43.8074C38.2372 44.2922 38.6928 44.624 39.2197 44.6954L41.4832 45.0229C41.3493 44.8511 41.2314 44.6648 41.1324 44.4654L36.1556 34.3909C35.6156 33.2788 33.9038 33.2308 33.3011 34.2803ZM29.9818 20.347C29.6241 20.6898 29.4601 21.1966 29.5496 21.6884L30.7569 28.709C30.9656 29.9462 29.6688 30.8853 28.5657 30.3039L26.2852 29.0966C26.3151 28.9624 26.3002 28.8432 26.2852 28.709L25.0779 21.6884C24.9884 21.1966 25.1524 20.6898 25.5101 20.347L30.6078 15.3834C31.5022 14.5039 31.0103 12.9836 29.7731 12.8047L22.7228 11.7911C22.2308 11.7165 21.8135 11.4036 21.5899 10.9564L19.3243 6.36545L20.2037 4.56183C20.7552 3.44391 22.3501 3.44391 22.9016 4.56183L26.0616 10.9564C26.2852 11.4036 26.7025 11.7165 27.1945 11.7911L34.2448 12.8047C35.482 12.9836 35.9739 14.5039 35.0795 15.3834L29.9818 20.347Z" fill="black"/>
<path d="M29.2691 31.225C28.911 31.225 28.55 31.1377 28.2181 30.963L25.4306 29.4885L25.5587 28.931L24.3432 21.8158C24.2093 21.0807 24.4524 20.3282 24.9953 19.8085L30.0886 14.8492C30.3011 14.641 30.3739 14.3441 30.2793 14.0573C30.1876 13.7778 29.959 13.5857 29.6664 13.5435L22.6168 12.5289C21.8861 12.4183 21.2558 11.9554 20.9239 11.2887L18.4945 6.36722L19.5338 4.23618C19.9166 3.45887 20.6896 2.97852 21.5528 2.97852C22.4159 2.97852 23.1889 3.45887 23.5703 4.23181L26.7304 10.6264C26.8454 10.8564 27.0609 11.0165 27.3054 11.0544L34.3507 12.0675C35.2022 12.1897 35.898 12.7749 36.1673 13.593C36.438 14.4169 36.2211 15.3063 35.6025 15.9147L30.4976 20.8857C30.32 21.0545 30.2385 21.3107 30.2836 21.5553L31.4918 28.5831C31.6359 29.4404 31.2909 30.2862 30.5893 30.7942C30.1934 31.0795 29.7334 31.225 29.2691 31.225ZM27.0274 28.6457L28.9139 29.6442C29.1774 29.7854 29.4758 29.7607 29.7145 29.586C29.9576 29.4113 30.0726 29.1304 30.0216 28.8349L28.8149 21.8158C28.681 21.0822 28.9226 20.3296 29.4656 19.8114L34.5603 14.8492C34.7728 14.641 34.8456 14.3441 34.751 14.0573C34.6593 13.7778 34.4307 13.5857 34.1381 13.5435L31.5049 13.1636C31.5821 13.2975 31.6461 13.4416 31.6956 13.593C31.9663 14.4169 31.7495 15.3063 31.1308 15.9147L26.0303 20.8813C25.8483 21.0545 25.7668 21.3107 25.8119 21.5553L27.0201 28.5831C27.0216 28.6049 27.0245 28.6253 27.0274 28.6457ZM20.1539 6.36431L22.2587 10.6264C22.3737 10.8564 22.5892 11.0165 22.8337 11.0544L25.4742 11.4343C25.4466 11.3862 25.4204 11.3382 25.3956 11.2887L22.234 4.89267C21.972 4.36282 21.1335 4.36282 20.8715 4.89267L20.1539 6.36431ZM71.986 68.1643C71.7475 68.4029 71.6282 68.7606 71.6878 69.1034L72.5375 74.0372C72.6866 74.9017 71.7773 75.5576 71.0022 75.1551L67.9763 73.5603L67.2161 69.1034C67.1565 68.7606 67.2758 68.4029 67.5143 68.1643L71.1066 64.6615C71.7326 64.0505 71.3898 62.9921 70.5252 62.8579L65.5616 62.1425C65.2188 62.0829 64.9207 61.8742 64.7717 61.5611L63.8475 59.683L65.1294 57.0745C65.517 56.2846 66.6349 56.2846 67.0224 57.0745L69.2434 61.5611C69.3924 61.8742 69.6905 62.0829 70.0333 62.1425L74.9969 62.8579C75.8615 62.9921 76.2043 64.0505 75.5783 64.6615L71.986 68.1643Z" fill="black"/>
<path d="M71.4925 76.0206C71.2087 76.0206 70.9234 75.9536 70.6585 75.8154L67.3032 74.0482L66.4808 69.2286C66.3804 68.6507 66.5696 68.0554 66.9874 67.6376L70.5871 64.1266C70.7065 64.0102 70.6876 63.8792 70.6657 63.8122C70.6483 63.7555 70.5871 63.6215 70.4095 63.5939L65.456 62.8806C64.8447 62.7744 64.3454 62.4017 64.0979 61.8806L63.0164 59.6826L64.4618 56.7451C64.7661 56.1236 65.3847 55.7364 66.0761 55.7364C66.7676 55.7364 67.3862 56.1236 67.6919 56.7451L69.9117 61.2314C69.9568 61.326 70.0485 61.3886 70.1621 61.409L75.1025 62.1193C75.7939 62.2285 76.3485 62.703 76.5581 63.3595C76.7663 64.0131 76.5902 64.7162 76.0982 65.1951L72.5115 68.693C72.4401 68.7657 72.4052 68.8778 72.4212 68.9754L73.2728 73.9099C73.3892 74.5897 73.1156 75.2637 72.5581 75.6713C72.2407 75.9027 71.8681 76.0206 71.4925 76.0206ZM68.6482 73.073L71.3499 74.4951C71.4969 74.5723 71.6308 74.5024 71.6789 74.4674C71.7385 74.4252 71.8317 74.3277 71.8026 74.1632L70.9525 69.2301C70.8521 68.6507 71.0413 68.0554 71.4591 67.6376L75.0588 64.1266C75.1782 64.0102 75.1593 63.8792 75.1374 63.8122C75.12 63.7555 75.0588 63.6215 74.8812 63.5939L72.0195 63.1819C72.0442 63.2387 72.0661 63.2984 72.0864 63.3595C72.2946 64.0131 72.1185 64.7162 71.6264 65.1951L68.034 68.6988C67.9699 68.7628 67.9335 68.8778 67.9495 68.9754L68.6482 73.073ZM64.6787 59.6826L65.44 61.2329C65.4851 61.326 65.5769 61.3886 65.6904 61.409L68.5391 61.818L66.3542 57.4045C66.2028 57.096 65.948 57.0974 65.7996 57.4031L64.6787 59.6826ZM18.0767 75.6363C17.4333 75.6378 16.7943 75.4354 16.2455 75.0381C15.2761 74.335 14.7972 73.1676 14.9966 71.99L16.9049 60.9272C16.9966 60.4002 16.8161 59.8427 16.4348 59.4715L8.39967 51.6301C7.54085 50.7989 7.23516 49.5718 7.60344 48.432C7.97317 47.2923 8.93825 46.4771 10.126 46.3054L21.2296 44.6954C21.7638 44.6241 22.2194 44.2922 22.4552 43.809L27.435 33.7302C27.959 32.6545 29.0303 31.9849 30.2269 31.9849C31.4248 31.9849 32.4962 32.6545 33.0217 33.7345L37.9985 43.806C38.2372 44.2922 38.6928 44.6241 39.2197 44.6954L50.3451 46.3054C51.5256 46.4771 52.4878 47.2865 52.8575 48.4204C53.2302 49.5616 52.9289 50.7916 52.0715 51.6301L44.0204 59.4715C43.6478 59.834 43.4687 60.3973 43.5517 60.9403L45.4586 71.9871C45.658 73.1676 45.182 74.335 44.2169 75.0366C43.2533 75.7382 41.9956 75.8299 40.9359 75.2797L30.9925 70.0467C30.5078 69.8022 29.9474 69.7978 29.4568 70.0511L19.5221 75.2782C19.0651 75.5184 18.5702 75.6363 18.0767 75.6363ZM30.2269 33.4754C29.5951 33.4754 29.0507 33.816 28.7727 34.3867L23.793 44.4669C23.3388 45.3956 22.4582 46.0346 21.4363 46.1714L10.3386 47.7814C9.70974 47.8716 9.21773 48.2865 9.02268 48.8906C8.82617 49.4946 8.98192 50.1191 9.43899 50.5616L17.4755 58.4046C18.2033 59.1135 18.5483 60.1775 18.3751 61.1805L16.4668 72.2403C16.3605 72.8619 16.6051 73.4572 17.1204 73.8313C17.6356 74.2054 18.2732 74.2506 18.8293 73.9594L28.7712 68.7279C29.6868 68.2606 30.7684 68.2592 31.6781 68.7235L41.6274 73.9594C42.1892 74.252 42.8297 74.2054 43.3406 73.8313C43.8516 73.4587 44.0947 72.8633 43.9884 72.2374L42.0801 61.1805C41.9199 60.1411 42.2576 59.1076 42.9811 58.4031L51.0307 50.5631C51.4849 50.1191 51.6392 49.4903 51.4398 48.8818C51.2447 48.2836 50.7556 47.8716 50.1326 47.7814L39.013 46.1714C37.9999 46.0346 37.1178 45.3956 36.6607 44.4654L31.6839 34.391C31.4045 33.816 30.8601 33.4754 30.2269 33.4754Z" fill="black"/>
<path d="M18.0767 75.6363C17.4333 75.6378 16.7943 75.4354 16.2455 75.0381C15.2761 74.335 14.7972 73.1676 14.9966 71.99L16.9049 60.9272C16.9966 60.4002 16.8161 59.8427 16.4348 59.4715L8.39967 51.6301C7.54085 50.7989 7.23516 49.5718 7.60344 48.432C7.97317 47.2923 8.93825 46.4771 10.126 46.3054L21.2296 44.6954C21.7638 44.6241 22.2194 44.2922 22.4552 43.809L27.435 33.7302C27.959 32.6545 29.0303 31.9849 30.2269 31.9849C31.4248 31.9849 32.4962 32.6545 33.0217 33.7345L37.9985 43.806C38.2372 44.2922 38.6928 44.6241 39.2197 44.6954L50.3451 46.3054C51.5256 46.4771 52.4878 47.2865 52.8575 48.4204C53.2302 49.5616 52.9289 50.7916 52.0715 51.6301L44.0204 59.4715C43.6478 59.834 43.4687 60.3973 43.5517 60.9403L45.4586 71.9871C45.658 73.1676 45.182 74.335 44.2169 75.0366C43.2533 75.7382 41.9956 75.8299 40.9359 75.2797L30.9925 70.0467C30.5078 69.8022 29.9474 69.7978 29.4568 70.0511L19.5221 75.2782C19.0651 75.5184 18.5702 75.6363 18.0767 75.6363ZM30.2269 33.4754C29.5951 33.4754 29.0507 33.816 28.7727 34.3867L23.793 44.4669C23.3388 45.3956 22.4582 46.0346 21.4363 46.1714L10.3386 47.7814C9.70974 47.8716 9.21773 48.2865 9.02268 48.8906C8.82617 49.4946 8.98192 50.1191 9.43899 50.5616L17.4755 58.4046C18.2033 59.1135 18.5483 60.1775 18.3751 61.1805L16.4668 72.2403C16.3605 72.8619 16.6051 73.4572 17.1204 73.8313C17.6356 74.2054 18.2732 74.2506 18.8293 73.9594L28.7712 68.7279C29.6868 68.2606 30.7684 68.2592 31.6781 68.7235L41.6274 73.9594C42.1892 74.252 42.8297 74.2054 43.3406 73.8313C43.8516 73.4587 44.0947 72.8633 43.9884 72.2374L42.0801 61.1805C41.9199 60.1411 42.2576 59.1076 42.9811 58.4031L51.0307 50.5631C51.4849 50.1191 51.6392 49.4903 51.4398 48.8818C51.2447 48.2836 50.7556 47.8716 50.1326 47.7814L39.013 46.1714C37.9999 46.0346 37.1178 45.3956 36.6607 44.4654L31.6839 34.391C31.4045 33.816 30.8601 33.4754 30.2269 33.4754Z" fill="black"/>
<path d="M24.7959 31.225C24.4363 31.225 24.0753 31.1377 23.7449 30.9616L17.4406 27.6398C17.2193 27.5277 16.9442 27.5277 16.7084 27.6471L10.4157 30.963C9.65878 31.3619 8.75774 31.3007 8.05904 30.7985C7.35743 30.292 7.01244 29.4448 7.15655 28.586L8.36327 21.5626C8.40111 21.3195 8.31669 21.0502 8.14056 20.8755L3.04876 15.9176C2.42284 15.3121 2.20013 14.4227 2.46651 13.5973C2.73289 12.7764 3.42868 12.1897 4.28314 12.0675L11.3328 11.0529C11.5802 11.0165 11.8073 10.8506 11.9208 10.622L15.0635 4.23327C15.4449 3.45887 16.2179 2.97852 17.081 2.97852C17.9442 2.97852 18.7172 3.45887 19.0985 4.23181L22.2587 10.6264C22.3737 10.8564 22.5891 11.0165 22.8337 11.0544L29.879 12.0675C30.7305 12.1897 31.4263 12.7749 31.6956 13.593C31.9663 14.4169 31.7494 15.3063 31.1308 15.9147L26.0259 20.8857C25.8483 21.0545 25.7668 21.3107 25.8119 21.5553L27.0201 28.5831C27.0448 28.8043 27.0681 29.0139 27.0114 29.2628C26.9852 29.8888 26.5601 30.5613 25.892 30.9368C25.5499 31.129 25.1729 31.225 24.7959 31.225ZM17.081 4.46908C16.7855 4.46908 16.5308 4.62775 16.3998 4.89267L13.2556 11.2858C12.9208 11.9554 12.2833 12.4168 11.5496 12.5275L4.49566 13.5435C4.20308 13.5857 3.976 13.7764 3.88429 14.0559C3.79259 14.3397 3.86828 14.6367 4.08662 14.8477L9.1857 19.8129C9.70682 20.3311 9.947 21.0735 9.83491 21.8027L8.62674 28.8363C8.57579 29.1333 8.69079 29.4157 8.93242 29.5904C9.04596 29.6719 9.35019 29.8393 9.71992 29.6442L16.0257 26.321C16.6997 25.9833 17.4581 25.9833 18.1233 26.3137L24.4422 29.6442C24.7697 29.8189 25.055 29.6981 25.1612 29.6369C25.3854 29.5118 25.5266 29.2934 25.5412 29.0532L25.547 28.8145L24.3432 21.8158C24.2093 21.0822 24.4509 20.3296 24.9939 19.8114L30.0886 14.8492C30.3011 14.641 30.3739 14.3441 30.2792 14.0573C30.1875 13.7778 29.959 13.5857 29.6664 13.5435L22.6168 12.5289C21.8861 12.4183 21.2558 11.9554 20.9239 11.2887L17.7623 4.89267C17.6313 4.62775 17.3765 4.46908 17.081 4.46908Z" fill="black"/>
<path d="M67.0208 76.0205C66.737 76.0205 66.4517 75.9536 66.1868 75.8153L61.7558 73.4746C61.6714 73.4339 61.5346 73.4324 61.4269 73.4877L57.0265 75.8138C56.4093 76.1355 55.68 76.0802 55.1196 75.6697C54.5636 75.2622 54.2914 74.5882 54.4093 73.9099L55.2564 68.9767C55.2739 68.8792 55.239 68.7744 55.1691 68.7089L51.581 65.1936C51.0904 64.7147 50.9143 64.0116 51.1224 63.358C51.3321 62.7015 51.8852 62.2284 52.5679 62.1207L57.5258 61.4046C57.5811 61.3958 57.7077 61.358 57.7645 61.2401L59.9901 56.7436C60.2944 56.1235 60.913 55.7363 61.6044 55.7363C62.2959 55.7363 62.9145 56.1235 63.2202 56.7451L65.44 61.2328C65.4852 61.326 65.5769 61.3885 65.6904 61.4089L70.6308 62.1193C71.3222 62.2284 71.8768 62.703 72.0864 63.3595C72.2946 64.013 72.1185 64.7161 71.6265 65.195L68.0398 68.6929C67.9685 68.7657 67.9335 68.8778 67.9495 68.9753L68.7982 73.8982C68.9175 74.5897 68.6439 75.2636 68.0864 75.6712C67.769 75.9026 67.3964 76.0205 67.0208 76.0205ZM61.6117 71.9593C61.8941 71.9593 62.1721 72.0219 62.4254 72.1427L66.8782 74.495C67.0296 74.5722 67.1591 74.5023 67.2072 74.4674C67.2668 74.4252 67.36 74.3276 67.3309 74.1632L67.2436 73.6988L66.4808 69.2286C66.3804 68.6507 66.5696 68.0553 66.9874 67.6376L70.5871 64.1266C70.7065 64.0101 70.6876 63.8791 70.6657 63.8122C70.6483 63.7554 70.5871 63.6215 70.4096 63.5938L65.456 62.8806C64.8447 62.7743 64.3454 62.4017 64.0979 61.8805L61.8839 57.4059C61.7296 57.0944 61.4763 57.0973 61.3279 57.403L59.1051 61.8922C58.8548 62.4148 58.3613 62.7772 57.7543 62.8777L52.7891 63.5953C52.6276 63.62 52.565 63.7408 52.5431 63.8107C52.5213 63.8791 52.5024 64.0101 52.6217 64.1266L56.1997 67.6317C56.6276 68.0335 56.83 68.6347 56.7252 69.2315L55.878 74.1632C55.8489 74.3291 55.942 74.4237 56.0003 74.4674C56.0483 74.5038 56.1822 74.5707 56.3351 74.4936L60.7573 72.1558C61.0309 72.0248 61.3235 71.9593 61.6117 71.9593Z" fill="black"/>
<path d="M39.1819 29.6208C39.0072 29.6208 38.834 29.5611 38.6928 29.4374C38.3813 29.1667 38.3493 28.6965 38.62 28.3865L48.1282 17.4721C48.3975 17.1577 48.8691 17.1272 49.1792 17.3994C49.4907 17.6701 49.5227 18.1403 49.252 18.4503L39.7438 29.3646C39.5968 29.5349 39.3901 29.6208 39.1819 29.6208ZM51.7367 15.2086C51.562 15.2086 51.3888 15.1489 51.2476 15.0252C50.9361 14.7545 50.9041 14.2843 51.1748 13.9743L53.4325 11.3832C53.7018 11.0688 54.172 11.0382 54.4835 11.3105C54.795 11.5812 54.827 12.0514 54.5563 12.3614L52.2986 14.9524C52.1516 15.1227 51.9449 15.2086 51.7367 15.2086ZM47.6872 30.1929C47.5125 30.1929 47.3393 30.1332 47.1981 30.0095C46.8866 29.7387 46.8545 29.2686 47.1253 28.9585L50.2563 25.3646C50.5256 25.0501 50.9973 25.0196 51.3073 25.2918C51.6188 25.5625 51.6508 26.0327 51.3801 26.3428L48.249 29.9367C48.102 30.107 47.8953 30.1929 47.6872 30.1929ZM53.3568 23.6833C53.1822 23.6833 53.0089 23.6236 52.8677 23.4999C52.5562 23.2292 52.5242 22.759 52.795 22.4489L61.9363 11.9567C62.2056 11.6438 62.6772 11.6118 62.9873 11.884C63.2988 12.1547 63.3308 12.6249 63.0601 12.9349L53.9187 23.4271C53.7717 23.5974 53.565 23.6833 53.3568 23.6833ZM35.5894 23.4475C35.4162 23.4475 35.2415 23.3878 35.1003 23.2641C34.7903 22.9933 34.7568 22.5232 35.0275 22.2131L38.1586 18.6177C38.4279 18.3091 38.8981 18.2727 39.2096 18.5449C39.5196 18.8157 39.5531 19.2859 39.2823 19.5959L36.1513 23.1913C36.0043 23.3602 35.7976 23.4475 35.5894 23.4475ZM41.2591 16.9379C41.0859 16.9379 40.9112 16.8782 40.77 16.7545C40.4585 16.4838 40.4265 16.0136 40.6972 15.7035L49.8386 5.2099C50.1079 4.89694 50.578 4.86492 50.8895 5.13712C51.201 5.40787 51.2331 5.87803 50.9623 6.18808L41.821 16.6817C41.6739 16.852 41.4672 16.9379 41.2591 16.9379ZM36.3929 11.4138C36.2197 11.4138 36.045 11.3541 35.9038 11.2304C35.5923 10.9596 35.5603 10.4895 35.831 10.1794L40.9418 4.31178C41.211 4.00173 41.6827 3.96679 41.9927 4.23899C42.3042 4.50974 42.3363 4.97991 42.0655 5.28996L36.9548 11.1576C36.8078 11.3265 36.6011 11.4138 36.3929 11.4138ZM61.9567 45.0476C61.7835 45.0476 61.6088 44.9879 61.4676 44.8642C61.1561 44.5934 61.1241 44.1233 61.3948 43.8132L66.5055 37.9456C66.7734 37.637 67.245 37.6006 67.5565 37.8728C67.868 38.1435 67.9 38.6137 67.6293 38.9238L62.5186 44.7914C62.3716 44.9603 62.1649 45.0476 61.9567 45.0476ZM63.3468 53.3098C63.1721 53.3098 62.9989 53.2501 62.8577 53.1264C62.5462 52.8556 62.5142 52.3854 62.785 52.0754L67.8971 46.2077C68.1664 45.8948 68.6366 45.8642 68.9481 46.135C69.2596 46.4057 69.2916 46.8759 69.0209 47.1859L63.9087 53.0536C63.7617 53.2239 63.555 53.3098 63.3468 53.3098ZM49.4208 38.5395C49.2476 38.5395 49.0729 38.4798 48.9317 38.3561C48.6202 38.0853 48.5882 37.6152 48.8589 37.3051L56.7295 28.2685C57.0003 27.9556 57.469 27.9236 57.7805 28.1958C58.092 28.4665 58.124 28.9367 57.8533 29.2467L49.9827 38.2833C49.8357 38.4536 49.629 38.5395 49.4208 38.5395ZM60.9028 25.3587C60.7296 25.3587 60.5549 25.2991 60.4137 25.1753C60.1037 24.9046 60.0702 24.4344 60.3409 24.1244L63.67 20.3019C63.9393 19.9918 64.4109 19.9569 64.7209 20.2291C65.031 20.4998 65.0645 20.97 64.7937 21.2801L61.4647 25.1026C61.3177 25.2714 61.111 25.3587 60.9028 25.3587ZM57.9246 39.1115C57.7499 39.1115 57.5767 39.0519 57.4355 38.9281C57.124 38.6574 57.092 38.1872 57.3627 37.8772L61.0586 33.6355C61.3279 33.321 61.7995 33.2905 62.1095 33.5627C62.421 33.8334 62.4531 34.3036 62.1823 34.6136L58.4865 38.8554C58.3395 39.0257 58.1328 39.1115 57.9246 39.1115ZM64.8374 31.1784C64.6642 31.1784 64.4895 31.1187 64.3483 30.9949C64.0368 30.7242 64.0048 30.254 64.2755 29.944L72.1738 20.8754C72.4445 20.5624 72.9132 20.5304 73.2247 20.8026C73.5362 21.0734 73.5683 21.5435 73.2975 21.8536L65.3993 30.9222C65.2522 31.0925 65.0455 31.1784 64.8374 31.1784ZM70.2975 35.3167C70.1242 35.3167 69.9496 35.257 69.8084 35.1333C69.4969 34.8626 69.4648 34.3924 69.7356 34.0823L71.9481 31.5423C72.2174 31.2308 72.6891 31.1973 72.9991 31.4695C73.3106 31.7402 73.3426 32.2104 73.0719 32.5204L70.8593 35.0605C70.7123 35.2308 70.5056 35.3167 70.2975 35.3167Z" fill="black"/>
</svg>
