<svg width="642" height="96" viewBox="0 0 642 96" fill="none" xmlns="http://www.w3.org/2000/svg">
<path d="M37.6173 16.08L33.9073 11.04H20.3973L27.9573 0.259999H38.5973L66.3173 41H55.5373L43.9173 25.32H22.7773L10.9473 41H0.237305L17.3173 16.08H37.6173ZM84.292 41H73.792V0.259999H126.642C130.282 0.259999 133.409 1.28666 136.022 3.34C138.589 5.3 139.872 7.68 139.872 10.48V41H129.372V16.36C129.092 14.96 128.135 13.7233 126.502 12.65C124.915 11.5767 122.862 11.04 120.342 11.04H84.152L84.292 41ZM157.847 0.259999V11.04H147.347V0.259999H157.847ZM157.847 41H147.347V15.52H157.847V41ZM273.515 29.94V41H220.665C216.978 41 213.851 40.02 211.285 38.06C208.718 36.0533 207.435 33.65 207.435 30.85V10.41C207.435 7.61 208.718 5.23 211.285 3.27C213.851 1.26333 216.978 0.259999 220.665 0.259999H273.515V11.04H226.825C224.351 11.04 222.275 11.5767 220.595 12.65C218.915 13.6767 218.028 14.96 217.935 16.5V24.34C217.935 25.0867 218.145 25.81 218.565 26.51C219.031 27.1633 219.661 27.7467 220.455 28.26C221.248 28.7733 222.181 29.1933 223.255 29.52C224.328 29.8 225.495 29.94 226.755 29.94H273.515ZM280.989 30.85V10.41C280.989 7.61 282.273 5.23 284.839 3.27C287.406 1.26333 290.533 0.259999 294.219 0.259999H333.839C337.479 0.259999 340.606 1.28666 343.219 3.34C345.786 5.3 347.069 7.68 347.069 10.48V30.85C347.069 33.65 345.786 36.0533 343.219 38.06C340.606 40.02 337.479 41 333.839 41H294.219C290.533 41 287.406 40.02 284.839 38.06C282.273 36.0533 280.989 33.65 280.989 30.85ZM336.639 24.2V16.36C336.313 14.96 335.333 13.7233 333.699 12.65C332.113 11.5767 330.059 11.04 327.539 11.04H300.379C297.906 11.04 295.829 11.5767 294.149 12.65C292.469 13.6767 291.583 14.96 291.489 16.5V24.34C291.489 25.0867 291.699 25.81 292.119 26.51C292.586 27.1633 293.216 27.7467 294.009 28.26C294.803 28.7733 295.736 29.1933 296.809 29.52C297.883 29.8 299.049 29.94 300.309 29.94H327.889C330.129 29.94 332.136 29.38 333.909 28.26C335.729 27.0933 336.639 25.74 336.639 24.2ZM365.044 15.94V41H354.544V15.94H365.044ZM410.124 41V11.04L391.224 41H384.224L365.184 11.04H354.544V0.259999H368.964L387.864 28.4L405.644 0.259999H420.624V41H410.124ZM428.099 11.04V0.259999H480.949C482.815 0.259999 484.565 0.493332 486.199 0.959998C487.832 1.38 489.232 2.03333 490.399 2.92C491.565 3.80666 492.475 4.92666 493.129 6.28C493.829 7.63333 494.179 9.22 494.179 11.04V15.66C494.179 19.2067 493.082 21.7033 490.889 23.15C488.742 24.5967 485.405 25.32 480.879 25.32H438.599V41H428.099V15.66H483.259V11.04H428.099ZM567.733 29.94V41H514.883C511.197 41 508.07 40.02 505.503 38.06C502.937 36.0533 501.653 33.65 501.653 30.85V15.66H567.733V25.32H512.153V29.94H567.733ZM501.653 11.04V10.41C501.653 7.61 502.937 5.23 505.503 3.27C508.07 1.26333 511.197 0.259999 514.883 0.259999H567.733V11.04H501.653ZM616.508 25.32H585.708V41H575.208V15.66H630.368V11.04H575.208V0.259999H628.058C629.925 0.259999 631.675 0.493332 633.308 0.959998C634.941 1.38 636.341 2.03333 637.508 2.92C638.675 3.80666 639.585 4.92666 640.238 6.28C640.938 7.63333 641.288 9.22 641.288 11.04V15.66C641.288 19.2067 640.191 21.7033 637.998 23.15C635.851 24.5967 632.515 25.32 627.988 25.32L641.288 41H629.808L616.508 25.32ZM105.139 96H94.6386V66.04H67.0586V55.26H133.139V66.04H105.139V96ZM177.993 71.08L174.283 66.04H160.773L168.333 55.26H178.973L206.693 96H195.913L184.293 80.32H163.153L151.323 96H140.613L157.693 71.08H177.993ZM252.248 96H241.748V66.04H214.168V55.26H280.248V66.04H252.248V96ZM325.803 96H315.303V66.04H287.723V55.26H353.803V66.04H325.803V96ZM361.277 85.85V65.41C361.277 62.61 362.561 60.23 365.127 58.27C367.694 56.2633 370.821 55.26 374.507 55.26H414.127C417.767 55.26 420.894 56.2867 423.507 58.34C426.074 60.3 427.357 62.68 427.357 65.48V85.85C427.357 88.65 426.074 91.0533 423.507 93.06C420.894 95.02 417.767 96 414.127 96H374.507C370.821 96 367.694 95.02 365.127 93.06C362.561 91.0533 361.277 88.65 361.277 85.85ZM416.927 79.2V71.36C416.601 69.96 415.621 68.7233 413.987 67.65C412.401 66.5767 410.347 66.04 407.827 66.04H380.667C378.194 66.04 376.117 66.5767 374.437 67.65C372.757 68.6767 371.871 69.96 371.777 71.5V79.34C371.777 80.0867 371.987 80.81 372.407 81.51C372.874 82.1633 373.504 82.7467 374.297 83.26C375.091 83.7733 376.024 84.1933 377.097 84.52C378.171 84.8 379.337 84.94 380.597 84.94H408.177C410.417 84.94 412.424 84.38 414.197 83.26C416.017 82.0933 416.927 80.74 416.927 79.2ZM434.832 85.85V65.41C434.832 62.61 436.115 60.23 438.682 58.27C441.249 56.2633 444.375 55.26 448.062 55.26H487.682C491.322 55.26 494.449 56.2867 497.062 58.34C499.629 60.3 500.912 62.68 500.912 65.48V85.85C500.912 88.65 499.629 91.0533 497.062 93.06C494.449 95.02 491.322 96 487.682 96H448.062C444.375 96 441.249 95.02 438.682 93.06C436.115 91.0533 434.832 88.65 434.832 85.85ZM490.482 79.2V71.36C490.155 69.96 489.175 68.7233 487.542 67.65C485.955 66.5767 483.902 66.04 481.382 66.04H454.222C451.749 66.04 449.672 66.5767 447.992 67.65C446.312 68.6767 445.425 69.96 445.332 71.5V79.34C445.332 80.0867 445.542 80.81 445.962 81.51C446.429 82.1633 447.059 82.7467 447.852 83.26C448.645 83.7733 449.579 84.1933 450.652 84.52C451.725 84.8 452.892 84.94 454.152 84.94H481.732C483.972 84.94 485.979 84.38 487.752 83.26C489.572 82.0933 490.482 80.74 490.482 79.2ZM508.387 85.22H563.547V80.6H521.547C517.44 80.5067 514.243 79.69 511.957 78.15C509.67 76.5633 508.48 74.16 508.387 70.94H561.167C565.693 70.94 569.03 71.6633 571.177 73.11C573.37 74.5567 574.467 77.0533 574.467 80.6V85.22C574.467 87.04 574.117 88.6267 573.417 89.98C572.763 91.3333 571.853 92.4533 570.687 93.34C569.52 94.18 568.12 94.8333 566.487 95.3C564.853 95.72 563.103 95.93 561.237 95.93H508.387V85.22ZM508.387 66.04V65.41C508.387 62.61 509.67 60.23 512.237 58.27C514.803 56.2633 517.93 55.26 521.617 55.26H574.467V66.04H508.387Z" fill="white"/>
</svg>
