<svg width="14" height="16" viewBox="0 0 14 16" fill="none" xmlns="http://www.w3.org/2000/svg">
<path d="M14 6.85925V4.06638C12.7069 4.06638 11.7201 3.71727 11.0833 3.03872C10.4297 2.26431 10.0636 1.28361 10.0479 0.26552V0.0639214L7.4375 0V11.3436C7.34795 11.8385 7.11044 12.2937 6.75701 12.6478C6.40359 13.0018 5.95128 13.2377 5.46114 13.3235C4.971 13.4093 4.46663 13.3409 4.01613 13.1276C3.56562 12.9143 3.19068 12.5663 2.9419 12.1306C2.69313 11.6949 2.58251 11.1924 2.62497 10.6911C2.66743 10.1898 2.86094 9.71375 3.17936 9.3272C3.49778 8.94066 3.92579 8.66224 4.40561 8.52954C4.88542 8.39683 5.39393 8.41624 5.8625 8.58513V5.88076C5.5893 5.83548 5.31295 5.81246 5.03611 5.81192C4.04006 5.81192 3.06638 6.11068 2.2382 6.67042C1.41002 7.23016 0.764524 8.02574 0.383353 8.95656C0.00218198 9.88737 -0.0975497 10.9116 0.0967697 11.8998C0.291089 12.8879 0.770732 13.7956 1.47504 14.508C2.17936 15.2204 3.07671 15.7056 4.05362 15.9021C5.03053 16.0987 6.04312 15.9978 6.96335 15.6122C7.88358 15.2267 8.67011 14.5738 9.22349 13.7361C9.77686 12.8983 10.0722 11.9135 10.0722 10.906C10.0717 10.6972 10.0587 10.4887 10.0333 10.2815V5.78242C11.2203 6.53224 12.6013 6.90714 14 6.85925Z" fill="white"/>
</svg>
