<svg width="75" height="75" viewBox="0 0 75 75" fill="none" xmlns="http://www.w3.org/2000/svg">
<path d="M14.5779 17.2072C16.3916 17.2052 18.1304 16.4839 19.4129 15.2014C20.6954 13.9189 21.4168 12.1801 21.4187 10.3664V8.04077C21.4187 7.14242 21.2418 6.25287 20.898 5.4229C20.5542 4.59294 20.0503 3.83881 19.4151 3.20358C18.7798 2.56835 18.0257 2.06446 17.1957 1.72068C16.3658 1.37689 15.4762 1.19995 14.5779 1.19995C13.6795 1.19995 12.79 1.37689 11.96 1.72068C11.13 2.06446 10.3759 2.56835 9.74069 3.20358C9.10546 3.83881 8.60157 4.59294 8.25779 5.4229C7.914 6.25287 7.73706 7.14242 7.73706 8.04077V10.3668C7.73915 12.1804 8.46057 13.9191 9.74303 15.2015C11.0255 16.4839 12.7643 17.2052 14.5779 17.2072ZM9.78813 8.04077C9.78813 6.77037 10.2928 5.55201 11.1911 4.6537C12.0894 3.7554 13.3078 3.25073 14.5782 3.25073C15.8486 3.25073 17.0669 3.7554 17.9652 4.6537C18.8636 5.55201 19.3682 6.77037 19.3682 8.04077V10.3668C19.3669 11.6368 18.8618 12.8544 17.9638 13.7524C17.0658 14.6504 15.8482 15.1555 14.5782 15.1568C13.3082 15.1555 12.0906 14.6504 11.1926 13.7524C10.2945 12.8544 9.78945 11.6368 9.78813 10.3668V8.04077Z" fill="url(#paint0_linear_1_139)"/>
<path d="M21.5899 17.7035H20.1216C19.8984 17.7035 19.6814 17.7763 19.5034 17.9108C19.3253 18.0454 19.1961 18.2343 19.1352 18.449L17.4832 24.2706L16.4955 22.5066L17.527 19.2136C17.5751 19.0601 17.5864 18.8974 17.56 18.7387C17.5335 18.58 17.4701 18.4297 17.3749 18.3001C17.2796 18.1704 17.1552 18.065 17.0116 17.9923C16.8681 17.9197 16.7094 17.8818 16.5485 17.8818H12.8357C12.6748 17.8818 12.5162 17.9197 12.3727 17.9923C12.2291 18.065 12.1047 18.1704 12.0094 18.3001C11.9142 18.4297 11.8507 18.58 11.8243 18.7387C11.7979 18.8974 11.8091 19.0601 11.8572 19.2136L12.8939 22.5233L12.085 24.0838L10.6215 18.4701C10.5642 18.2505 10.4358 18.0561 10.2562 17.9174C10.0766 17.7786 9.85612 17.7034 9.62919 17.7034H7.97392C6.99021 17.7033 6.01731 17.9086 5.11749 18.3061C4.21766 18.7036 3.41073 19.2845 2.74833 20.0118C2.08593 20.7391 1.58264 21.5966 1.27068 22.5295C0.95872 23.4625 0.844955 24.4503 0.936665 25.4297V40.068C0.936675 40.2861 1.0062 40.4985 1.13515 40.6743L5.79335 47.0272L6.82036 69.0212C6.85872 70.1877 7.35003 71.2933 8.19005 72.1035C9.03008 72.9136 10.1527 73.3647 11.3198 73.3608H18.2746C19.4401 73.3654 20.5616 72.916 21.4014 72.1079C22.2413 71.2998 22.7336 70.1965 22.774 69.0316L23.8014 47.0249L28.4293 40.6674C28.5569 40.4921 28.6257 40.2808 28.6257 40.0639V25.4297C28.7175 24.4504 28.6038 23.4627 28.2919 22.5299C27.9801 21.5971 27.4769 20.7396 26.8146 20.0124C26.1524 19.2852 25.3456 18.7043 24.4459 18.3068C23.5463 17.9093 22.5735 17.7039 21.5899 17.704V17.7035ZM15.1528 19.9327L14.6924 21.4036L14.2317 19.9327H15.1528ZM26.5801 25.2762C26.5766 25.3106 26.5748 25.3451 26.5748 25.3797V39.7311L21.9623 46.0667C21.8443 46.2288 21.7764 46.422 21.767 46.6223L20.7248 68.9465C20.704 69.5818 20.4364 70.1839 19.9789 70.6252C19.5214 71.0664 18.91 71.312 18.2744 71.3099H11.3198C10.6825 71.3114 10.0697 71.0641 9.61201 70.6206C9.15428 70.1772 8.88768 69.5726 8.86894 68.9355L7.82714 46.6216C7.81773 46.4201 7.74909 46.2259 7.62983 46.0632L2.98833 39.732V25.3794C2.98833 25.3449 2.98657 25.3103 2.98305 25.2759C2.9123 24.5779 2.98871 23.8729 3.20737 23.2063C3.42602 22.5398 3.78205 21.9265 4.25246 21.406C4.72287 20.8856 5.29721 20.4696 5.93837 20.185C6.57954 19.9003 7.27328 19.7533 7.9748 19.7534H8.83745L10.7748 27.1849C10.8254 27.3788 10.9317 27.5537 11.0806 27.6878C11.2295 27.822 11.4144 27.9096 11.6125 27.9398C11.8107 27.97 12.0133 27.9415 12.1954 27.8578C12.3775 27.774 12.531 27.6388 12.6371 27.4688C12.6518 27.4455 12.6654 27.4214 12.678 27.397L14.6224 23.6446H14.7835L16.9016 27.4271C17.0006 27.604 17.1498 27.7475 17.3303 27.8396C17.5109 27.9317 17.7147 27.9682 17.916 27.9445C18.1173 27.9209 18.307 27.8381 18.4613 27.7066C18.6156 27.5752 18.7274 27.4009 18.7827 27.206L20.8972 19.7533H21.5905C22.2919 19.7533 22.9855 19.9005 23.6265 20.1852C24.2675 20.47 24.8416 20.886 25.3119 21.4064C25.7821 21.9268 26.138 22.5401 26.3565 23.2065C26.575 23.873 26.6513 24.5779 26.5805 25.2757L26.5801 25.2762Z" fill="url(#paint1_linear_1_139)"/>
<path d="M60.0155 17.6459C61.8292 17.6439 63.568 16.9226 64.8505 15.6401C66.133 14.3576 66.8543 12.6188 66.8563 10.8051V8.47949C66.8563 6.66519 66.1356 4.9252 64.8527 3.6423C63.5698 2.3594 61.8298 1.63867 60.0155 1.63867C58.2012 1.63867 56.4612 2.3594 55.1783 3.6423C53.8954 4.9252 53.1747 6.66519 53.1747 8.47949V10.8055C53.1768 12.6191 53.8982 14.3579 55.1806 15.6402C56.4631 16.9226 58.2019 17.6439 60.0155 17.6459ZM55.2255 8.47949C55.2255 7.2091 55.7301 5.99073 56.6284 5.09242C57.5267 4.19412 58.7451 3.68945 60.0155 3.68945C61.2859 3.68945 62.5043 4.19412 63.4026 5.09242C64.3009 5.99073 64.8055 7.2091 64.8055 8.47949V10.8055C64.8055 12.0759 64.3009 13.2943 63.4026 14.1926C62.5043 15.0909 61.2859 15.5956 60.0155 15.5956C58.7451 15.5956 57.5267 15.0909 56.6284 14.1926C55.7301 13.2943 55.2255 12.0759 55.2255 10.8055V8.47949Z" fill="url(#paint2_linear_1_139)"/>
<path d="M67.0276 18.142H65.5594C65.3461 18.1421 65.1382 18.2087 64.9645 18.3325L60.2298 21.7047L55.6764 18.3427C55.5 18.2125 55.2865 18.1422 55.0673 18.1422H53.412C52.4283 18.1421 51.4555 18.3473 50.5556 18.7448C49.6558 19.1423 48.8489 19.7232 48.1865 20.4504C47.5241 21.1776 47.0208 22.0351 46.7088 22.968C46.3968 23.9009 46.283 24.8887 46.3746 25.8681V40.5064C46.3746 40.7245 46.4441 40.9368 46.5731 41.1127L51.2313 47.4656L52.2582 69.4596C52.2966 70.6259 52.7879 71.7314 53.6279 72.5415C54.4678 73.3515 55.5903 73.8025 56.7573 73.7988H63.7121C64.8776 73.8033 65.9991 73.3539 66.8389 72.5458C67.6788 71.7377 68.1711 70.6344 68.2115 69.4696L69.2389 47.4628L73.8668 41.1054C73.9945 40.93 74.0632 40.7187 74.0632 40.5019V25.8666C74.155 24.8873 74.0413 23.8997 73.7294 22.9669C73.4176 22.0341 72.9144 21.1766 72.2522 20.4494C71.5899 19.7222 70.7832 19.1413 69.8835 18.7437C68.9839 18.3462 68.0112 18.1409 67.0276 18.1409V18.142ZM72.0177 25.7153C72.0142 25.7497 72.0125 25.7843 72.0125 25.8188V40.1702L67.4 46.5058C67.2819 46.6679 67.214 46.8611 67.2047 47.0614L66.1625 69.3856C66.1416 70.0209 65.8741 70.6231 65.4166 71.0643C64.9591 71.5055 64.3477 71.7512 63.7121 71.749H56.7573C56.12 71.7505 55.5073 71.5032 55.0496 71.0598C54.5919 70.6164 54.3253 70.0119 54.3064 69.375L53.2646 47.061C53.2552 46.8595 53.1866 46.6653 53.0673 46.5026L48.4251 40.1709V25.8184C48.4251 25.7838 48.4233 25.7493 48.4198 25.7148C48.3491 25.0169 48.4255 24.3119 48.6441 23.6453C48.8628 22.9787 49.2188 22.3654 49.6892 21.845C50.1596 21.3246 50.734 20.9086 51.3751 20.6239C52.0163 20.3393 52.7101 20.1923 53.4116 20.1924H54.7299L59.6045 23.7915C59.6271 23.8085 59.6506 23.8246 59.6748 23.8398H59.6758C59.7445 23.8825 59.818 23.917 59.8948 23.9424H59.8966C60.0039 23.9784 60.1165 23.9959 60.2297 23.9942H60.2314C60.3308 23.9931 60.4295 23.9775 60.5244 23.9479H60.526C60.6053 23.9231 60.6812 23.8886 60.7522 23.8454C60.775 23.8315 60.7975 23.8161 60.819 23.8015L65.8863 20.1921H67.0267C67.7281 20.1922 68.4217 20.3394 69.0627 20.6242C69.7037 20.9089 70.2778 21.3249 70.7481 21.8453C71.2184 22.3657 71.5743 22.9789 71.7929 23.6454C72.0115 24.3118 72.088 25.0167 72.0173 25.7146L72.0177 25.7153Z" fill="url(#paint3_linear_1_139)"/>
<path d="M44.207 31.0108L33.2647 30.9886L35.4033 28.8506C35.5956 28.6583 35.7037 28.3975 35.7037 28.1255C35.7037 27.8536 35.5956 27.5928 35.4033 27.4004C35.211 27.2081 34.9502 27.1001 34.6782 27.1001C34.4063 27.1001 34.1455 27.2081 33.9531 27.4004L30.0698 31.2837C30.0524 31.3012 30.0367 31.3196 30.0209 31.3379C30.0155 31.3442 30.0093 31.3501 30.0041 31.3565C29.9881 31.3759 29.9737 31.396 29.9594 31.4162C29.9546 31.423 29.9491 31.4296 29.9447 31.4367C29.931 31.4572 29.9187 31.4783 29.9065 31.4995C29.9021 31.5071 29.8973 31.5142 29.893 31.5222C29.8818 31.543 29.8721 31.5643 29.8624 31.5856C29.8583 31.5947 29.8536 31.6037 29.8498 31.6129C29.841 31.6338 29.8337 31.6551 29.8265 31.6765C29.823 31.6869 29.8189 31.697 29.8157 31.7075C29.809 31.7296 29.8035 31.7515 29.7984 31.7745C29.7961 31.7846 29.7931 31.7945 29.7909 31.8048C29.7855 31.8313 29.7819 31.8581 29.7786 31.8849C29.7786 31.8914 29.7766 31.8977 29.7758 31.9041C29.7689 31.973 29.7689 32.0425 29.7758 32.1114C29.7758 32.1131 29.7758 32.1149 29.7766 32.1168C29.7799 32.1483 29.7845 32.1796 29.7912 32.2107C29.7931 32.2202 29.7959 32.2293 29.7981 32.2387C29.8034 32.2618 29.8088 32.2851 29.8158 32.308C29.8191 32.3184 29.823 32.3285 29.8265 32.3387C29.8339 32.3601 29.8412 32.3816 29.8498 32.4026C29.8536 32.4118 29.8583 32.4206 29.8624 32.4298C29.8721 32.4512 29.8818 32.4726 29.8929 32.4934C29.8971 32.5013 29.9021 32.5088 29.9067 32.5166C29.9187 32.5377 29.9308 32.5587 29.9445 32.5791C29.9496 32.5867 29.9554 32.5938 29.9607 32.6012C29.9746 32.6209 29.9885 32.6405 30.0047 32.6598C30.0134 32.6705 30.0233 32.6802 30.0323 32.6904C30.0455 32.7051 30.058 32.7197 30.072 32.7344L33.9553 36.6177C34.0506 36.7129 34.1636 36.7884 34.288 36.84C34.4124 36.8915 34.5458 36.918 34.6804 36.918C34.8151 36.918 34.9484 36.8915 35.0729 36.84C35.1973 36.7884 35.3103 36.7129 35.4055 36.6177C35.5008 36.5225 35.5763 36.4094 35.6278 36.285C35.6794 36.1606 35.7059 36.0272 35.7059 35.8926C35.7059 35.7579 35.6794 35.6246 35.6278 35.5002C35.5763 35.3757 35.5008 35.2627 35.4055 35.1675L33.2779 33.0398L44.2056 33.0621H44.2076C44.4796 33.0623 44.7405 32.9544 44.9329 32.7623C45.1253 32.5701 45.2336 32.3094 45.2338 32.0374C45.234 31.7655 45.1261 31.5046 44.9339 31.3121C44.7418 31.1197 44.4811 31.0115 44.2091 31.0113L44.207 31.0108Z" fill="black"/>
<path d="M45.0405 43.5846C45.0454 43.5777 45.0508 43.5711 45.0552 43.5641C45.0689 43.5436 45.0813 43.5225 45.0934 43.5013C45.0978 43.4937 45.1026 43.4866 45.1069 43.4786C45.1182 43.4578 45.1278 43.4365 45.1375 43.4151C45.1416 43.4061 45.1463 43.3971 45.1501 43.3879C45.1589 43.3669 45.1662 43.3457 45.1734 43.3243C45.1769 43.3139 45.181 43.3038 45.1842 43.2933C45.191 43.2711 45.1964 43.2493 45.2015 43.2263C45.2039 43.2162 45.2068 43.2063 45.209 43.196C45.2144 43.1695 45.2181 43.1427 45.2213 43.1159C45.2213 43.1094 45.2233 43.1031 45.2241 43.0967C45.231 43.0278 45.231 42.9583 45.2241 42.8894C45.2241 42.8876 45.2241 42.8859 45.2241 42.884C45.2207 42.8525 45.2162 42.8211 45.2094 42.7901C45.2075 42.7806 45.2047 42.7715 45.2025 42.7621C45.1973 42.739 45.1918 42.7157 45.1848 42.6928C45.1816 42.6824 45.1776 42.6723 45.1741 42.6621C45.1668 42.6407 45.1595 42.6191 45.1508 42.5982C45.147 42.589 45.1423 42.5802 45.1382 42.571C45.1286 42.5496 45.1189 42.5282 45.1078 42.5074C45.1035 42.4995 45.0985 42.492 45.094 42.4842C45.082 42.4631 45.0698 42.442 45.0562 42.4217C45.0511 42.4141 45.0452 42.407 45.0399 42.3996C45.0253 42.3799 45.0121 42.3603 44.996 42.341C44.9863 42.3291 44.9755 42.3183 44.9652 42.307C44.9531 42.2934 44.9417 42.2794 44.9286 42.2664L41.0453 38.3831C40.9501 38.2879 40.837 38.2124 40.7126 38.1608C40.5882 38.1093 40.4549 38.0828 40.3202 38.0828C40.1856 38.0828 40.0522 38.1093 39.9278 38.1608C39.8034 38.2124 39.6903 38.2879 39.5951 38.3831C39.4999 38.4783 39.4244 38.5914 39.3728 38.7158C39.3213 38.8402 39.2948 38.9735 39.2948 39.1082C39.2948 39.2429 39.3213 39.3762 39.3728 39.5006C39.4244 39.625 39.4999 39.7381 39.5951 39.8333L41.7228 41.961L30.7951 41.9387H30.793C30.6584 41.9386 30.525 41.965 30.4005 42.0164C30.2761 42.0678 30.163 42.1432 30.0677 42.2383C29.9723 42.3335 29.8967 42.4464 29.845 42.5708C29.7934 42.6951 29.7667 42.8284 29.7666 42.9631C29.7665 43.0977 29.7929 43.2311 29.8443 43.3556C29.8957 43.48 29.9711 43.5931 30.0662 43.6885C30.1613 43.7838 30.2743 43.8594 30.3986 43.9111C30.523 43.9627 30.6563 43.9894 30.791 43.9895L41.7333 44.0118L39.5947 46.1504C39.4024 46.3428 39.2943 46.6036 39.2943 46.8755C39.2943 47.1475 39.4024 47.4083 39.5947 47.6006C39.787 47.7929 40.0478 47.901 40.3198 47.901C40.5917 47.901 40.8526 47.7929 41.0449 47.6006L44.9282 43.7173C44.9455 43.7001 44.961 43.6817 44.9768 43.6636C44.9824 43.6571 44.9885 43.6511 44.9939 43.6447C45.0118 43.6248 45.0262 43.6047 45.0405 43.5846Z" fill="url(#paint4_linear_1_139)"/>
<defs>
<linearGradient id="paint0_linear_1_139" x1="14.5777" y1="2.63667" x2="14.5777" y2="71.9781" gradientUnits="userSpaceOnUse">
<stop/>
<stop offset="1"/>
</linearGradient>
<linearGradient id="paint1_linear_1_139" x1="14.7812" y1="75.293" x2="14.7812" y2="71.9782" gradientUnits="userSpaceOnUse">
<stop/>
<stop offset="1"/>
</linearGradient>
<linearGradient id="paint2_linear_1_139" x1="60.0155" y1="75.2931" x2="60.0155" y2="71.9783" gradientUnits="userSpaceOnUse">
<stop/>
<stop offset="1"/>
</linearGradient>
<linearGradient id="paint3_linear_1_139" x1="60.2188" y1="75.2929" x2="60.2188" y2="71.9781" gradientUnits="userSpaceOnUse">
<stop/>
<stop offset="1"/>
</linearGradient>
<linearGradient id="paint4_linear_1_139" x1="37.4995" y1="75.2931" x2="37.4995" y2="71.9783" gradientUnits="userSpaceOnUse">
<stop/>
<stop offset="1"/>
</linearGradient>
</defs>
</svg>
