<svg width="21" height="16" viewBox="0 0 21 16" fill="none" xmlns="http://www.w3.org/2000/svg">
<path d="M20.8637 3.53314C20.8637 1.65824 19.5059 0.149992 17.8281 0.149992C15.5555 0.0416643 13.2378 0 10.8709 0H10.1325C7.76969 0 5.44788 0.0416643 3.1753 0.149992C1.50164 0.149992 0.143831 1.66657 0.143831 3.54147C0.0412774 5.02472 -0.00384604 6.50797 0.000256087 7.99122C-0.00384604 9.47447 0.0412774 10.9577 0.139728 12.4451C0.139728 14.32 1.49753 15.8408 3.1712 15.8408C5.55864 15.9533 8.00761 16.0033 10.4976 15.9991C12.9917 16.0074 15.4325 15.9574 17.824 15.8408C19.5018 15.8408 20.8596 14.32 20.8596 12.4451C20.958 10.9577 21.0032 9.47447 20.9991 7.98706C21.0073 6.5038 20.9621 5.02055 20.8637 3.53314ZM8.49166 12.0785V3.89145L14.4397 7.98289L8.49166 12.0785Z" fill="white"/>
</svg>
